<?xml version="1.0" standalone="no"?>
<!DOCTYPE svg PUBLIC "-//W3C//DTD SVG 1.1//EN" "http://www.w3.org/Graphics/SVG/1.1/DTD/svg11.dtd" >
<svg xmlns="http://www.w3.org/2000/svg">
<metadata></metadata>
<defs>
<font id="proxima_nova_thextrabold" horiz-adv-x="544" >
<font-face units-per-em="2048" ascent="1618" descent="-430" />
<missing-glyph horiz-adv-x="524" />
<glyph horiz-adv-x="0" />
<glyph horiz-adv-x="0" />
<glyph horiz-adv-x="682" />
<glyph unicode="&#xd;" horiz-adv-x="0" />
<glyph unicode=" "  horiz-adv-x="524" />
<glyph unicode="&#x09;" horiz-adv-x="524" />
<glyph unicode="&#xa0;" horiz-adv-x="524" />
<glyph unicode="!" horiz-adv-x="548" d="M84 168q0 78 56 135t134 57t135.5 -57t57.5 -135q0 -77 -57.5 -134t-135.5 -57t-134 57t-56 134zM86 1366h377l-47 -889h-281z" />
<glyph unicode="&#x22;" horiz-adv-x="897" d="M80 1223q0 67 48 115t116 48t117 -48t49 -115q0 -19 -25 -142t-49 -237l-25 -113h-133q-98 449 -98 492zM489 1223q0 68 47.5 115.5t116.5 47.5q68 0 116 -48t48 -115q0 -19 -24.5 -142t-48.5 -237l-25 -113h-131q-99 449 -99 492z" />
<glyph unicode="#" horiz-adv-x="1294" d="M29 336l63 194h191l98 304h-188l61 192h195l112 340h225l-112 -340h176l113 340h227l-115 -340h191l-60 -192h-194l-103 -304h197l-62 -194h-200l-111 -336h-227l112 336h-178l-110 -336h-226l111 336h-186zM508 530h174l102 304h-176z" />
<glyph unicode="$" horiz-adv-x="1280" d="M49 193l187 264q80 -80 192.5 -130.5t243.5 -50.5q89 0 141.5 31.5t52.5 81.5q0 29 -26.5 50.5t-71.5 35t-103 25.5t-122 27t-128 34.5t-122 52.5t-103 76t-71.5 110.5t-26.5 151.5q0 105 50.5 195t154 153t244.5 80v193h227v-195q248 -35 424 -182l-193 -252 q-84 69 -189.5 105t-209.5 36q-74 0 -110.5 -26.5t-36.5 -71.5q0 -28 26.5 -48t71 -34t102.5 -26.5t122 -28t128 -35t122 -52.5t102.5 -76t71 -108.5t26.5 -146.5q0 -187 -119 -306.5t-338 -143.5v-187h-227v187q-302 28 -492 211z" />
<glyph unicode="%" horiz-adv-x="1579" d="M47 1042q0 148 98 246t256 98q161 0 261 -98t100 -246q0 -145 -100 -242.5t-261 -97.5q-158 0 -256 97.5t-98 242.5zM264 1042q0 -71 38 -111t99 -40q62 0 102 40t40 111q0 74 -40 115t-102 41q-61 0 -99 -41t-38 -115zM266 0l873 1366h178l-875 -1366h-176zM819 315 q0 147 98.5 245.5t256.5 98.5q160 0 259 -98t99 -246q0 -145 -99 -242.5t-259 -97.5q-158 0 -256.5 97.5t-98.5 242.5zM1036 315q0 -73 38 -112t100 -39t101.5 39t39.5 112q0 74 -39.5 115t-101.5 41t-100 -41t-38 -115z" />
<glyph unicode="&#x26;" horiz-adv-x="1329" d="M37 379q0 74 22.5 135.5t65 107.5t90 79.5t111.5 64.5q-82 164 -82 287q0 141 116 237t297 96q102 0 188.5 -35t140.5 -104t54 -160q0 -61 -19.5 -112.5t-47.5 -87t-76 -69.5t-87 -54t-99 -47q49 -66 98 -125q42 -56 94 -117q72 115 113 242l248 -117q-85 -181 -193 -317 q124 -139 262 -283h-393l-82 84q-164 -109 -356 -109q-98 0 -181.5 25.5t-147.5 74.5t-100 127t-36 177zM367 410q0 -84 53 -137.5t127 -53.5q72 0 147 43q-93 103 -129 152q-76 95 -121 159q-77 -67 -77 -163zM555 1047q0 -68 47 -160q83 40 126.5 82t43.5 100q0 42 -28 68 t-70 26q-52 0 -85.5 -32.5t-33.5 -83.5z" />
<glyph unicode="'" horiz-adv-x="489" d="M80 1223q0 67 48 115t116 48t117 -48t49 -115q0 -19 -25 -142t-49 -237l-25 -113h-133q-98 449 -98 492z" />
<glyph unicode="(" horiz-adv-x="659" d="M80 498q0 249 94 499t250 406l199 -152q-108 -185 -156.5 -361t-48.5 -392t48.5 -392.5t156.5 -359.5l-199 -154q-156 156 -250 406t-94 500z" />
<glyph unicode=")" horiz-adv-x="659" d="M37 -254q107 183 155 360t48 392q0 216 -48 392t-155 361l199 152q156 -156 250 -406t94 -499q0 -250 -94 -500t-250 -406z" />
<glyph unicode="*" horiz-adv-x="731" d="M43 956l195 101l-195 100l74 127l184 -117l-10 219h149l-12 -219l184 117l76 -127l-194 -100l194 -101l-76 -129l-184 119l12 -219h-149l10 219l-184 -119z" />
<glyph unicode="+" horiz-adv-x="1038" d="M59 596v188h357v392h207v-392h356v-188h-356v-406h-207v406h-357z" />
<glyph unicode="," horiz-adv-x="548" d="M82 172q0 78 55.5 133t132.5 55q87 0 148 -63.5t61 -171.5q0 -124 -62 -231.5t-171 -184.5l-131 107q52 26 104.5 83t69.5 111q-30 -6 -47 -6q-67 0 -113.5 47t-46.5 121z" />
<glyph unicode="-" horiz-adv-x="614" d="M61 365v264h492v-264h-492z" />
<glyph unicode="." horiz-adv-x="552" d="M82 168q0 78 57 135t135 57t135.5 -57t57.5 -135t-57.5 -135.5t-135.5 -57.5t-135 57.5t-57 135.5z" />
<glyph unicode="/" horiz-adv-x="708" d="M0 -41l485 1448h224l-486 -1448h-223z" />
<glyph unicode="0" horiz-adv-x="1277" d="M53 682q0 110 22 211.5t69.5 191.5t115.5 157t165.5 105.5t213.5 38.5t213.5 -38.5t165.5 -105.5t115.5 -157t69.5 -191.5t22 -211.5t-22 -212t-69.5 -192.5t-115.5 -157.5t-165.5 -106t-213.5 -39t-213.5 39t-165.5 106t-115.5 157.5t-69.5 192.5t-22 212zM410 682 q0 -395 229 -395t229 395q0 393 -229 393t-229 -393z" />
<glyph unicode="1" horiz-adv-x="915" d="M10 895l477 471h306v-1366h-353v915l-229 -231z" />
<glyph unicode="2" horiz-adv-x="1243" d="M45 1159q103 114 251.5 170.5t301.5 56.5q244 0 398.5 -125t154.5 -329q0 -154 -115 -299t-374 -326h499v-307h-1071v274q161 116 259 188.5t185 141.5t130.5 109.5t76.5 82t42.5 71.5t9.5 65q0 67 -54.5 105t-134.5 38q-205 0 -364 -149z" />
<glyph unicode="3" horiz-adv-x="1232" d="M33 190l178 240q70 -68 173.5 -105.5t199.5 -37.5q110 0 169.5 37t59.5 96q0 60 -54 87.5t-190 27.5q-154 0 -184 -3v314q27 -2 184 -2q222 0 222 106q0 62 -63.5 93.5t-166.5 31.5q-194 0 -340 -131l-170 221q197 221 547 221q257 0 400 -101.5t143 -272.5 q0 -116 -86.5 -201t-212.5 -106q56 -5 111.5 -29t103 -63.5t77 -100t29.5 -131.5q0 -181 -155.5 -293.5t-409.5 -112.5q-189 0 -335 59t-230 156z" />
<glyph unicode="4" horiz-adv-x="1261" d="M45 250v274l518 842h490v-807h166v-309h-166v-250h-355v250h-653zM387 559h311v500z" />
<glyph unicode="5" horiz-adv-x="1263" d="M82 174l192 246q70 -64 163 -98.5t192 -34.5q107 0 165 45t58 112q0 71 -55 114.5t-158 43.5q-162 0 -270 -102l-244 59v807h991v-307h-639v-264q51 49 128 78.5t165 29.5q117 0 216.5 -53t161.5 -156t62 -235q0 -222 -156 -353t-421 -131q-349 0 -551 199z" />
<glyph unicode="6" horiz-adv-x="1263" d="M53 680q0 326 182.5 516t493.5 190q120 0 229 -35t187 -96l-154 -270q-59 47 -119 68.5t-143 21.5q-130 0 -224.5 -86.5t-94.5 -224.5v-16q52 69 142.5 112t192.5 43q93 0 178 -29.5t151 -84.5t105.5 -141.5t39.5 -192.5q0 -210 -153.5 -345t-391.5 -135 q-127 0 -230.5 36t-175 99.5t-120.5 152.5t-72 193.5t-23 223.5zM410 512q9 -95 67.5 -160t173.5 -65q94 0 152.5 47t58.5 108q0 80 -66.5 121t-156.5 41q-140 0 -229 -92z" />
<glyph unicode="7" horiz-adv-x="1146" d="M43 1059v307h1071v-244l-481 -1122h-387l463 1059h-666z" />
<glyph unicode="8" horiz-adv-x="1265" d="M53 360q0 113 77 205.5t200 139.5q-254 96 -254 317q0 95 48.5 167.5t130.5 114t177.5 62t200.5 20.5t200.5 -20.5t177 -62t130.5 -114t49 -167.5q0 -220 -256 -317q123 -47 199.5 -139t76.5 -206q0 -96 -48 -171.5t-130 -121t-183.5 -69t-215.5 -23.5t-215.5 23 t-184.5 68.5t-131.5 121t-48.5 172.5zM412 401q0 -60 61 -96.5t160 -36.5q96 0 158.5 37t62.5 96q0 39 -38.5 72t-86.5 49.5t-96 22.5q-79 -9 -150 -48t-71 -96zM434 971q0 -35 33.5 -63.5t76.5 -43.5t89 -22q46 7 88.5 22t75 43.5t32.5 63.5q0 57 -54 90t-142 33 q-91 0 -145 -33t-54 -90z" />
<glyph unicode="9" horiz-adv-x="1263" d="M43 909q0 210 153.5 345t391.5 135q158 0 278.5 -54.5t194 -151.5t110.5 -222.5t37 -276.5q0 -325 -182.5 -516t-493.5 -191q-119 0 -227.5 35t-185.5 97l151 270q58 -47 119.5 -68.5t142.5 -21.5q144 0 232 91t88 220v16q-52 -69 -143 -113t-191 -44q-93 0 -178 30 t-151.5 85.5t-106 142t-39.5 192.5zM401 922q0 -80 67 -121t155 -41q143 0 229 92q-7 94 -67 159.5t-177 65.5q-92 0 -149.5 -47t-57.5 -108z" />
<glyph unicode=":" horiz-adv-x="530" d="M82 168q0 78 57 135t135 57t135.5 -57t57.5 -135t-57.5 -135.5t-135.5 -57.5t-135 57.5t-57 135.5zM82 811q0 78 57 135.5t135 57.5t135.5 -57.5t57.5 -135.5t-57.5 -135.5t-135.5 -57.5t-135 57.5t-57 135.5z" />
<glyph unicode=";" horiz-adv-x="548" d="M82 176q0 78 55.5 133.5t132.5 55.5q87 0 148 -64t61 -174q0 -122 -62 -230t-171 -184l-131 107q52 24 104.5 81.5t69.5 112.5q-20 -8 -47 -8q-67 0 -113.5 47.5t-46.5 122.5zM82 813q0 78 57 134.5t135 56.5t135.5 -56.5t57.5 -134.5t-57.5 -136.5t-135.5 -58.5 t-135 58.5t-57 136.5z" />
<glyph unicode="&#x3c;" horiz-adv-x="1038" d="M59 571v228l920 389v-225l-707 -279l707 -276v-224z" />
<glyph unicode="=" horiz-adv-x="1038" d="M59 399v189h920v-189h-920zM59 780v189h920v-189h-920z" />
<glyph unicode="&#x3e;" horiz-adv-x="1038" d="M59 184v224l707 276l-707 279v225l920 -389v-228z" />
<glyph unicode="?" horiz-adv-x="927" d="M10 1194q83 93 202.5 142.5t248.5 49.5q201 0 319.5 -89t118.5 -238q0 -69 -23.5 -126t-58.5 -92t-76.5 -68.5t-76.5 -58t-58.5 -56.5t-23.5 -68q0 -52 30 -82l-272 -70q-64 77 -64 189q0 64 27.5 116t67 84.5t78.5 59.5t66.5 54t27.5 54q0 80 -121 80q-58 0 -115 -28 t-100 -78zM272 168q0 78 57.5 135t135.5 57t135 -57t57 -135t-57 -135.5t-135 -57.5t-135.5 57.5t-57.5 135.5z" />
<glyph unicode="@" horiz-adv-x="1603" d="M72 500q0 128 43 250.5t120.5 221.5t178.5 175t223 118t248 42q144 0 266.5 -49.5t204.5 -133.5t128 -196.5t46 -237.5q0 -126 -41.5 -228.5t-106.5 -163t-138 -92.5t-144 -32q-90 0 -141 40.5t-66 102.5l-2 15q-53 -75 -128.5 -116.5t-152.5 -41.5q-147 0 -233 98.5 t-86 251.5q0 130 64 244.5t169 182t221 67.5q87 0 152 -34t100 -91l21 98h278l-100 -471q-4 -20 -4 -53q0 -84 65 -84q68 0 123.5 81t55.5 226q0 241 -151 386t-408 145q-141 0 -274 -58.5t-230.5 -155.5t-156 -229t-58.5 -272q0 -242 162.5 -403.5t410.5 -161.5 q195 0 369 110l47 -65q-200 -129 -426 -129q-183 0 -332 85t-233 232t-84 326zM578 549q0 -71 40 -113.5t109 -42.5q106 0 188 109l46 217q-18 33 -54.5 57.5t-89.5 24.5q-103 0 -171 -76.5t-68 -175.5z" />
<glyph unicode="A" horiz-adv-x="1427" d="M-23 0l515 1366h442l516 -1366h-399l-68 197h-539l-67 -197h-400zM539 504h348l-174 514z" />
<glyph unicode="B" horiz-adv-x="1392" d="M123 0v1366h774q97 0 175.5 -30t126 -80t72.5 -111t25 -127q0 -123 -66 -206.5t-167 -106.5q110 -17 185 -112t75 -222q0 -158 -104.5 -264.5t-296.5 -106.5h-799zM475 297h354q63 0 99.5 33.5t36.5 89.5q0 53 -36.5 88t-99.5 35h-354v-246zM475 842h342q54 0 87.5 31.5 t33.5 82.5q0 50 -33.5 81.5t-87.5 31.5h-342v-227z" />
<glyph unicode="C" horiz-adv-x="1417" d="M53 682q0 207 97 369t265.5 250t377.5 88q118 0 218 -31t171.5 -86t120.5 -116t86 -134l-304 -143q-35 84 -115.5 141t-176.5 57q-166 0 -273.5 -113t-107.5 -282t107.5 -282t273.5 -113q96 0 176.5 57t115.5 141l304 -143q-28 -57 -64 -106.5t-89 -98.5t-115.5 -84 t-147.5 -56.5t-180 -21.5q-209 0 -377.5 88.5t-265.5 250.5t-97 368z" />
<glyph unicode="D" horiz-adv-x="1488" d="M123 0v1366h573q215 0 382 -81t262.5 -237t95.5 -364t-95.5 -364.5t-262 -238t-380.5 -81.5h-575zM475 307h221q174 0 276.5 109t102.5 268q0 165 -98 270t-279 105h-223v-752z" />
<glyph unicode="E" horiz-adv-x="1206" d="M123 0v1366h1001v-307h-649v-213h635v-307h-635v-232h649v-307h-1001z" />
<glyph unicode="F" horiz-adv-x="1191" d="M123 0v1366h1001v-307h-649v-213h635v-307h-635v-539h-352z" />
<glyph unicode="G" horiz-adv-x="1480" d="M53 682q0 159 58.5 293t158.5 224t235 140t288 50q110 0 205.5 -27.5t166 -75.5t122.5 -104.5t89 -124.5l-295 -154q-42 74 -118 124t-170 50q-166 0 -273.5 -113t-107.5 -282t107.5 -282t273.5 -113q71 0 141 24.5t110 57.5v106h-307v309h660v-542q-242 -267 -604 -267 q-153 0 -288 50t-235 140t-158.5 224t-58.5 293z" />
<glyph unicode="H" horiz-adv-x="1517" d="M123 0v1366h352v-510h567v510h353v-1366h-353v549h-567v-549h-352z" />
<glyph unicode="I" horiz-adv-x="598" d="M123 0v1366h352v-1366h-352z" />
<glyph unicode="J" horiz-adv-x="1007" d="M6 98l148 269q96 -80 196 -80q84 0 133 50t49 136v893h353v-897q0 -246 -135.5 -370t-368.5 -124q-236 0 -375 123z" />
<glyph unicode="K" horiz-adv-x="1339" d="M123 0v1366h352v-561l420 561h434l-530 -639l559 -727h-432l-359 514l-92 -115v-399h-352z" />
<glyph unicode="L" horiz-adv-x="1083" d="M123 0v1366h352v-1059h549v-307h-901z" />
<glyph unicode="M" horiz-adv-x="1796" d="M123 0v1366h489l285 -741l287 741h489v-1366h-352v889l-346 -889h-156l-344 889v-889h-352z" />
<glyph unicode="N" horiz-adv-x="1515" d="M123 0v1366h362l553 -752v752h355v-1366h-340l-578 791v-791h-352z" />
<glyph unicode="O" horiz-adv-x="1568" d="M53 682q0 153 55.5 285.5t152.5 224.5t232.5 144.5t290.5 52.5t290 -52.5t231.5 -144.5t152 -224.5t55.5 -285.5t-55.5 -285.5t-152 -224.5t-231.5 -144.5t-290 -52.5t-290.5 52.5t-232.5 144.5t-152.5 224.5t-55.5 285.5zM412 682q0 -169 102.5 -282t269.5 -113 q166 0 268.5 113t102.5 282q0 170 -102.5 282.5t-268.5 112.5q-167 0 -269.5 -112.5t-102.5 -282.5z" />
<glyph unicode="P" horiz-adv-x="1316" d="M123 0v1366h684q112 0 203 -36t150 -98.5t90.5 -144.5t31.5 -176q0 -125 -53.5 -226t-163 -163.5t-258.5 -62.5h-332v-459h-352zM475 766h285q72 0 118 39t46 106q0 69 -46 108.5t-118 39.5h-285v-293z" />
<glyph unicode="Q" horiz-adv-x="1568" d="M53 682q0 153 55.5 285.5t152.5 224.5t232.5 144.5t290.5 52.5t290 -52.5t231.5 -144.5t152 -224.5t55.5 -285.5q0 -282 -172 -473l86 -105l-245 -196l-101 123q-144 -56 -297 -56q-155 0 -290.5 52.5t-232.5 144.5t-152.5 224.5t-55.5 285.5zM412 682q0 -169 102.5 -282 t269.5 -113q44 0 80 8l-125 151l244 197l129 -156q43 91 43 195q0 170 -102.5 282.5t-268.5 112.5q-167 0 -269.5 -112.5t-102.5 -282.5z" />
<glyph unicode="R" horiz-adv-x="1353" d="M123 0v1366h684q147 0 256.5 -61t164 -163.5t54.5 -230.5q0 -69 -16.5 -129.5t-42.5 -104.5t-62.5 -80t-73.5 -58.5t-77 -36.5l278 -502h-403l-230 459h-180v-459h-352zM475 766h279q73 0 121.5 39t48.5 108q0 67 -49 106.5t-121 39.5h-279v-293z" />
<glyph unicode="S" horiz-adv-x="1241" d="M25 193l186 264q80 -80 192.5 -130.5t243.5 -50.5q89 0 142 31.5t53 81.5q0 29 -26.5 50.5t-71.5 35t-103 25.5t-122 27t-128 34.5t-122 52.5t-103 76t-71.5 110.5t-26.5 151.5q0 87 36.5 164.5t103.5 138t172 96t232 35.5q335 0 555 -190l-192 -252q-84 69 -190 105 t-210 36q-74 0 -110.5 -26.5t-36.5 -71.5q0 -28 26.5 -48t71 -34t102.5 -26.5t122 -28t128 -35t122 -52.5t102.5 -76t71 -108.5t26.5 -146.5q0 -209 -149 -333t-420 -124q-378 0 -606 218z" />
<glyph unicode="T" horiz-adv-x="1206" d="M45 1059v307h1116v-307h-381v-1059h-352v1059h-383z" />
<glyph unicode="U" horiz-adv-x="1536" d="M123 553v813h358v-801q0 -126 74.5 -202t214.5 -76q137 0 212 76.5t75 201.5v801h356v-811q0 -129 -39.5 -234.5t-117.5 -183t-202 -120t-284 -42.5q-161 0 -286 43t-203 120.5t-118 182t-40 232.5z" />
<glyph unicode="V" horiz-adv-x="1427" d="M-23 1366h400l336 -985l338 985h399l-516 -1366h-442z" />
<glyph unicode="W" horiz-adv-x="1916" d="M-12 1366h395l207 -911l233 911h271l233 -911l205 911h397l-391 -1366h-373l-207 856l-206 -856h-373z" />
<glyph unicode="X" horiz-adv-x="1384" d="M-23 0l478 700l-447 666h416l268 -428l264 428h418l-444 -664l475 -702h-416l-297 459l-297 -459h-418z" />
<glyph unicode="Y" horiz-adv-x="1341" d="M-23 1366h398l297 -504l293 504h399l-516 -815v-551h-352v551z" />
<glyph unicode="Z" horiz-adv-x="1220" d="M80 0v281l582 778h-582v307h1046v-281l-583 -778h598v-307h-1061z" />
<glyph unicode="[" horiz-adv-x="610" d="M104 -389v1778h471v-203h-249v-1372h249v-203h-471z" />
<glyph unicode="\" horiz-adv-x="708" d="M0 1407h223l486 -1448h-224z" />
<glyph unicode="]" horiz-adv-x="610" d="M37 -186h250v1372h-250v203h471v-1778h-471v203z" />
<glyph unicode="^" horiz-adv-x="911" d="M39 682l305 684h227l301 -684h-223l-192 473l-191 -473h-227z" />
<glyph unicode="_" horiz-adv-x="1155" d="M-6 -82h1167v-203h-1167v203z" />
<glyph unicode="`" horiz-adv-x="538" d="M0 1434h279l260 -295h-213z" />
<glyph unicode="a" horiz-adv-x="1128" d="M51 301q0 86 31 150t82.5 99t108.5 51.5t118 16.5q100 0 181.5 -29.5t125.5 -84.5v119q0 65 -53 104t-147 39q-159 0 -281 -104l-113 198q91 78 209 116t240 38q75 0 139.5 -11.5t125 -40t103 -72.5t68 -113.5t25.5 -158.5v-618h-316v98q-46 -56 -129 -89.5t-178 -33.5 q-59 0 -117.5 20t-109 58.5t-82 103t-31.5 144.5zM365 297q0 -56 45 -85.5t112 -29.5q55 0 103.5 19t72.5 53v88q-24 33 -73 51.5t-103 18.5q-67 0 -112 -29.5t-45 -85.5z" />
<glyph unicode="b" horiz-adv-x="1210" d="M115 0v1366h315v-494q113 142 293 142q189 0 312.5 -140.5t123.5 -377.5q0 -244 -123 -382.5t-313 -138.5q-171 0 -293 140v-115h-315zM430 342q29 -39 82.5 -63.5t105.5 -24.5q96 0 158 66t62 176q0 108 -62 173.5t-158 65.5q-52 0 -105.5 -25.5t-82.5 -64.5v-303z" />
<glyph unicode="c" horiz-adv-x="1024" d="M49 496q0 229 153.5 373.5t387.5 144.5q147 0 250.5 -53.5t154.5 -129.5l-204 -190q-64 94 -187 94q-101 0 -166 -64.5t-65 -174.5t65.5 -176t165.5 -66q119 0 187 96l204 -192q-52 -75 -155.5 -129t-249.5 -54q-234 0 -387.5 145t-153.5 376z" />
<glyph unicode="d" horiz-adv-x="1210" d="M49 496q0 238 123.5 378t314.5 140q177 0 293 -142v494h314v-1366h-314v115q-122 -140 -293 -140q-190 0 -314 138.5t-124 382.5zM373 496q0 -109 61 -175.5t156 -66.5q52 0 106 25.5t84 64.5v303q-30 39 -84 63.5t-106 24.5q-95 0 -156 -65t-61 -174z" />
<glyph unicode="e" horiz-adv-x="1122" d="M49 496q0 143 66.5 261t187.5 187.5t272 69.5q223 0 364.5 -151t141.5 -400v-68h-704q14 -74 80 -125t168 -51q58 0 132 23.5t113 60.5l134 -197q-71 -64 -183 -97.5t-231 -33.5q-153 0 -275 62t-194 182t-72 277zM373 600h407q-3 29 -15.5 56.5t-35 54t-62.5 43 t-92 16.5q-49 0 -87.5 -16t-61 -42.5t-35.5 -54t-18 -57.5z" />
<glyph unicode="f" horiz-adv-x="714" d="M18 715v274h164v49q0 156 99.5 252t255.5 96q189 0 284 -98l-116 -180q-36 39 -99 39q-46 0 -77 -29t-31 -80v-49h200v-274h-200v-715h-316v715h-164z" />
<glyph unicode="g" horiz-adv-x="1208" d="M49 516q0 237 121.5 367.5t314.5 130.5q177 0 293 -142v117h314v-901q0 -116 -36 -205t-92 -141.5t-133.5 -86t-150.5 -45t-154 -11.5q-258 0 -438 147l137 225q106 -114 301 -114q34 0 66.5 5.5t67 21.5t60 40.5t42 65.5t16.5 94v76q-123 -144 -293 -144 q-92 0 -170.5 31.5t-138 92.5t-93.5 157.5t-34 218.5zM373 516q0 -106 60 -163.5t157 -57.5q51 0 105 24.5t83 63.5v264q-29 39 -83 63.5t-105 24.5q-97 0 -157 -57.5t-60 -161.5z" />
<glyph unicode="h" horiz-adv-x="1216" d="M117 0v1366h315v-498q51 61 139.5 103.5t202.5 42.5q163 0 245.5 -83.5t82.5 -225.5v-705h-316v575q0 87 -41.5 123.5t-121.5 36.5q-112 0 -191 -96v-639h-315z" />
<glyph unicode="i" d="M92 1260q0 75 52.5 127.5t127.5 52.5t128 -52.5t53 -127.5t-53 -129t-128 -54t-127.5 54t-52.5 129zM115 0v989h315v-989h-315z" />
<glyph unicode="j" d="M-213 -332l80 232q30 -24 57 -33.5t70 -9.5q57 0 89 38t32 113v981h315v-981q0 -188 -96 -298.5t-287 -110.5q-97 0 -148 14.5t-112 54.5zM92 1260q0 75 52.5 127.5t127.5 52.5t128 -52.5t53 -127.5t-53 -129t-128 -54t-127.5 54t-52.5 129z" />
<glyph unicode="k" horiz-adv-x="1118" d="M115 0v1366h315v-772l301 395h381l-364 -450l382 -539h-389l-217 350l-94 -112v-238h-315z" />
<glyph unicode="l" d="M115 0v1366h315v-1366h-315z" />
<glyph unicode="m" horiz-adv-x="1792" d="M115 0v989h315v-121q39 52 129.5 99t196.5 47q218 0 280 -176q47 71 140 123.5t202 52.5q140 0 218.5 -74.5t78.5 -222.5v-717h-313v602q0 61 -32 97t-99 36q-105 0 -178 -96v-639h-316v602q0 133 -131 133q-99 0 -176 -96v-639h-315z" />
<glyph unicode="n" horiz-adv-x="1214" d="M115 0v989h315v-121q51 61 139.5 103.5t202.5 42.5q163 0 245.5 -85.5t82.5 -228.5v-700h-316v571q0 164 -161 164q-114 0 -193 -96v-639h-315z" />
<glyph unicode="o" horiz-adv-x="1179" d="M49 496q0 105 37.5 199t105.5 165t170.5 112.5t225.5 41.5q165 0 289.5 -72t187.5 -188.5t63 -257.5t-63 -258.5t-187.5 -190t-289.5 -72.5q-163 0 -287.5 72.5t-188 190t-63.5 258.5zM375 496q0 -104 57 -173t156 -69q101 0 159 69t58 173q0 102 -58 170.5t-159 68.5 q-99 0 -156 -68.5t-57 -170.5z" />
<glyph unicode="p" horiz-adv-x="1206" d="M115 -377v1366h315v-115q116 140 293 140q192 0 313 -137t121 -381q0 -245 -121 -383t-313 -138q-174 0 -293 142v-494h-315zM430 344q29 -38 83 -64t105 -26q94 0 156 66t62 176q0 108 -62 173.5t-156 65.5q-52 0 -105.5 -25.5t-82.5 -64.5v-301z" />
<glyph unicode="q" horiz-adv-x="1206" d="M49 496q0 244 121 381t313 137q177 0 293 -140v115h316v-1366h-316v494q-119 -142 -293 -142q-192 0 -313 138t-121 383zM371 496q0 -110 61.5 -176t157.5 -66q50 0 104 26t82 64v301q-29 39 -82.5 64.5t-103.5 25.5q-96 0 -157.5 -65.5t-61.5 -173.5z" />
<glyph unicode="r" horiz-adv-x="768" d="M115 0v989h315v-121q52 63 137.5 105.5t171.5 42.5v-303q-36 8 -77 8q-65 0 -134 -25t-98 -65v-631h-315z" />
<glyph unicode="s" horiz-adv-x="991" d="M31 127l131 217q58 -51 160.5 -91t187.5 -40q133 0 133 76q0 23 -24.5 38t-65 22.5t-92.5 17.5t-105.5 20.5t-105.5 34t-92.5 55t-65 86t-24.5 125.5q0 137 113.5 231.5t310.5 94.5q235 0 413 -131l-121 -209q-47 46 -126 77t-164 31q-55 0 -90 -20t-35 -51 q0 -23 31.5 -37t82.5 -23.5t112 -20t122.5 -33t112.5 -56t82.5 -94.5t31.5 -144q0 -145 -120.5 -236.5t-329.5 -91.5q-132 0 -258.5 41.5t-204.5 110.5z" />
<glyph unicode="t" horiz-adv-x="737" d="M16 715v274h164v271h314v-271h200v-274h-200v-361q0 -44 24 -72t64 -28q25 0 48.5 8t31.5 17l61 -238q-70 -66 -234 -66q-151 0 -230 74.5t-79 216.5v449h-164z" />
<glyph unicode="u" horiz-adv-x="1212" d="M115 285v704h315v-575q0 -86 42 -123t122 -37q112 0 188 96v639h316v-989h-316v119q-53 -61 -140.5 -102.5t-201.5 -41.5q-163 0 -244 83.5t-81 226.5z" />
<glyph unicode="v" horiz-adv-x="1073" d="M-20 989h331l224 -627l225 627h334l-389 -989h-336z" />
<glyph unicode="w" horiz-adv-x="1611" d="M-12 989h323l160 -606l195 606h280l195 -606l157 606h326l-293 -989h-340l-186 612l-184 -612h-340z" />
<glyph unicode="x" horiz-adv-x="1048" d="M-12 0l338 508l-318 481h346l170 -268l168 268h346l-315 -481l338 -508h-346l-191 299l-192 -299h-344z" />
<glyph unicode="y" horiz-adv-x="1073" d="M-20 989h331l224 -627l225 627h334l-447 -1130q-29 -76 -71.5 -128t-98 -79.5t-114 -39t-134.5 -13.5q-82 0 -135 16l45 281q36 -19 78 -19q112 0 133 55l23 54z" />
<glyph unicode="z" horiz-adv-x="989" d="M78 0v231l397 484h-397v274h825v-223l-405 -494h413v-272h-833z" />
<glyph unicode="{" horiz-adv-x="618" d="M6 416v168q52 0 79.5 37.5t27.5 97.5v317q0 158 102.5 255.5t245.5 97.5h123v-203h-123q-54 0 -90.5 -41.5t-36.5 -108.5v-352q0 -144 -94 -184q94 -40 94 -185v-352q0 -65 37 -107t90 -42h123v-203h-123q-143 0 -245.5 96t-102.5 254v320q0 60 -27.5 97.5t-79.5 37.5z " />
<glyph unicode="|" horiz-adv-x="448" d="M123 -41v1448h203v-1448h-203z" />
<glyph unicode="}" horiz-adv-x="618" d="M35 -186h123q53 0 90 42t37 107v352q0 145 94 185q-94 40 -94 184v352q0 67 -36.5 108.5t-90.5 41.5h-123v203h123q143 0 245.5 -97.5t102.5 -255.5v-317q0 -60 27 -97.5t79 -37.5v-168q-52 0 -79 -37.5t-27 -97.5v-320q0 -158 -102.5 -254t-245.5 -96h-123v203z" />
<glyph unicode="~" horiz-adv-x="1052" d="M51 856q6 68 14 123.5t23 116.5t39 107t56.5 84.5t79.5 58.5t106 20q55 0 97 -19t66.5 -50t42 -68t28.5 -74t21 -68t25.5 -50t36.5 -19q83 0 109 348l204 -25q-5 -68 -13 -123t-22.5 -116t-37.5 -106.5t-55 -83.5t-79 -58t-106 -20q-55 0 -97 19t-66.5 49.5t-42 67.5 t-28.5 74t-21 67.5t-25.5 49.5t-36.5 19q-80 0 -107 -349z" />
<glyph unicode="&#xa2;" horiz-adv-x="1024" d="M49 496q0 200 119.5 337.5t312.5 170.5v153h224v-153q101 -19 175 -66.5t115 -106.5l-204 -190q-64 94 -187 94q-101 0 -166 -64.5t-65 -174.5t65.5 -176t165.5 -66q119 0 187 96l204 -192q-41 -59 -115 -106t-175 -66v-191h-224v191q-193 31 -312.5 169t-119.5 341z" />
<glyph unicode="&#xa3;" horiz-adv-x="1157" d="M49 551v197h107q-68 106 -68 204q0 100 47 184.5t122 137.5t165.5 82.5t181.5 29.5q374 0 508 -256l-281 -161q-23 63 -72 98t-110 35q-75 0 -124.5 -44.5t-49.5 -111.5q0 -37 12 -76t22.5 -58.5t35.5 -63.5h286v-197h-225v-14q0 -61 -35 -119t-88 -88q44 16 99 16 q60 0 132.5 -29.5t116.5 -29.5q114 0 166 71l138 -278q-98 -105 -316 -105q-75 0 -145 22t-127 44t-101 22q-98 0 -235 -77l-117 235q87 43 143 100.5t56 124.5q0 51 -23 105h-221z" />
<glyph unicode="&#xa5;" horiz-adv-x="1341" d="M-23 1366h398l297 -504l293 504h399l-397 -627h327v-188h-446v-135h446v-189h-446v-227h-352v227h-447v189h447v135h-447v188h326z" />
<glyph unicode="&#xa8;" horiz-adv-x="626" d="M-66 1260q0 66 46.5 112.5t113.5 46.5t114.5 -46.5t47.5 -112.5q0 -69 -47 -115.5t-115 -46.5t-114 46.5t-46 115.5zM373 1260q0 66 46.5 112.5t112.5 46.5q67 0 114.5 -46.5t47.5 -112.5q0 -69 -47 -115.5t-115 -46.5q-66 0 -112.5 46.5t-46.5 115.5z" />
<glyph unicode="&#xa9;" horiz-adv-x="1593" d="M90 684q0 192 95 355t258 257.5t354 94.5q144 0 275 -56t225 -150.5t150 -225.5t56 -275q0 -143 -56 -274t-150 -226t-225 -151t-275 -56q-191 0 -354 95t-258 258t-95 354zM170 684q0 -169 84.5 -313.5t229 -229t313.5 -84.5t313.5 84.5t228.5 229t84 313.5t-84 313.5 t-228.5 229t-313.5 84.5t-313.5 -84.5t-229 -229t-84.5 -313.5zM385 686q0 185 123.5 306.5t302.5 121.5q188 0 305 -137l-72 -70q-41 55 -101.5 87t-131.5 32q-136 0 -230 -96t-94 -244q0 -146 94.5 -245t229.5 -99q72 0 133.5 32.5t102.5 88.5l71 -68q-121 -141 -307 -141 q-179 0 -302.5 123t-123.5 309z" />
<glyph unicode="&#xab;" horiz-adv-x="1169" d="M61 498l328 362h285l-328 -362l328 -369h-285zM496 498l327 362h285l-328 -362l328 -369h-285z" />
<glyph unicode="&#xad;" horiz-adv-x="614" d="M61 365v264h492v-264h-492z" />
<glyph unicode="&#xae;" horiz-adv-x="1011" d="M72 952q0 181 127 307.5t307 126.5q119 0 219 -57.5t157.5 -157.5t57.5 -219q0 -180 -126.5 -307t-307.5 -127q-180 0 -307 127t-127 307zM139 952q0 -151 107.5 -258.5t259.5 -107.5t258 107.5t106 258.5q0 154 -106 259.5t-258 105.5q-153 0 -260 -106t-107 -259z M338 702v498h203q66 0 116 -42.5t50 -108.5q0 -72 -46 -110t-81 -38l133 -199h-90l-129 197h-82v-197h-74zM412 963h129q34 0 62 24.5t28 61.5q0 39 -28 64.5t-62 25.5h-129v-176z" />
<glyph unicode="&#xb4;" horiz-adv-x="538" d="M0 1139l260 295h279l-326 -295h-213z" />
<glyph unicode="&#xb8;" horiz-adv-x="468" d="M0 -338l57 119q84 -62 168 -62q40 0 68.5 15t28.5 43q0 45 -52 45q-32 0 -59 -27l-109 62l64 166h145l-51 -123q33 20 70 20q58 0 98.5 -41.5t40.5 -105.5q0 -82 -68 -130.5t-168 -48.5q-72 0 -135 20t-98 48z" />
<glyph unicode="&#xbb;" horiz-adv-x="1169" d="M61 129l328 369l-328 362h285l328 -362l-328 -369h-285zM496 129l327 369l-327 362h284l328 -362l-328 -369h-284z" />
<glyph unicode="&#xe0;" horiz-adv-x="1128" d="M51 301q0 86 31 150t82.5 99t108.5 51.5t118 16.5q100 0 181.5 -29.5t125.5 -84.5v119q0 65 -53 104t-147 39q-159 0 -281 -104l-113 198q91 78 209 116t240 38q75 0 139.5 -11.5t125 -40t103 -72.5t68 -113.5t25.5 -158.5v-618h-316v98q-46 -56 -129 -89.5t-178 -33.5 q-59 0 -117.5 20t-109 58.5t-82 103t-31.5 144.5zM152 1434h278l260 -295h-213zM365 297q0 -56 45 -85.5t112 -29.5q55 0 103.5 19t72.5 53v88q-24 33 -73 51.5t-103 18.5q-67 0 -112 -29.5t-45 -85.5z" />
<glyph unicode="&#xe1;" horiz-adv-x="1128" d="M51 301q0 86 31 150t82.5 99t108.5 51.5t118 16.5q100 0 181.5 -29.5t125.5 -84.5v119q0 65 -53 104t-147 39q-159 0 -281 -104l-113 198q91 78 209 116t240 38q75 0 139.5 -11.5t125 -40t103 -72.5t68 -113.5t25.5 -158.5v-618h-316v98q-46 -56 -129 -89.5t-178 -33.5 q-59 0 -117.5 20t-109 58.5t-82 103t-31.5 144.5zM365 297q0 -56 45 -85.5t112 -29.5q55 0 103.5 19t72.5 53v88q-24 33 -73 51.5t-103 18.5q-67 0 -112 -29.5t-45 -85.5zM418 1139l260 295h278l-325 -295h-213z" />
<glyph unicode="&#xe2;" horiz-adv-x="1128" d="M51 301q0 86 31 150t82.5 99t108.5 51.5t118 16.5q100 0 181.5 -29.5t125.5 -84.5v119q0 65 -53 104t-147 39q-159 0 -281 -104l-113 198q91 78 209 116t240 38q75 0 139.5 -11.5t125 -40t103 -72.5t68 -113.5t25.5 -158.5v-618h-316v98q-46 -56 -129 -89.5t-178 -33.5 q-59 0 -117.5 20t-109 58.5t-82 103t-31.5 144.5zM238 1139l184 295h276l191 -295h-189l-141 166l-135 -166h-186zM365 297q0 -56 45 -85.5t112 -29.5q55 0 103.5 19t72.5 53v88q-24 33 -73 51.5t-103 18.5q-67 0 -112 -29.5t-45 -85.5z" />
<glyph unicode="&#xe3;" horiz-adv-x="1128" d="M51 301q0 86 31 150t82.5 99t108.5 51.5t118 16.5q100 0 181.5 -29.5t125.5 -84.5v119q0 65 -53 104t-147 39q-159 0 -281 -104l-113 198q91 78 209 116t240 38q75 0 139.5 -11.5t125 -40t103 -72.5t68 -113.5t25.5 -158.5v-618h-316v98q-46 -56 -129 -89.5t-178 -33.5 q-59 0 -117.5 20t-109 58.5t-82 103t-31.5 144.5zM217 1147q0 274 232 274q44 0 81.5 -17.5t58.5 -38.5t45.5 -38.5t45.5 -17.5q27 0 44 25t17 75h160q0 -135 -58.5 -204.5t-172.5 -69.5q-45 0 -83 17.5t-58.5 38.5t-45 38.5t-45.5 17.5q-27 0 -44 -25t-17 -75h-160z M365 297q0 -56 45 -85.5t112 -29.5q55 0 103.5 19t72.5 53v88q-24 33 -73 51.5t-103 18.5q-67 0 -112 -29.5t-45 -85.5z" />
<glyph unicode="&#xe4;" horiz-adv-x="1128" d="M51 301q0 86 31 150t82.5 99t108.5 51.5t118 16.5q100 0 181.5 -29.5t125.5 -84.5v119q0 65 -53 104t-147 39q-159 0 -281 -104l-113 198q91 78 209 116t240 38q75 0 139.5 -11.5t125 -40t103 -72.5t68 -113.5t25.5 -158.5v-618h-316v98q-46 -56 -129 -89.5t-178 -33.5 q-59 0 -117.5 20t-109 58.5t-82 103t-31.5 144.5zM176 1260q0 66 46.5 112.5t113.5 46.5t114.5 -46.5t47.5 -112.5q0 -69 -47 -115.5t-115 -46.5t-114 46.5t-46 115.5zM365 297q0 -56 45 -85.5t112 -29.5q55 0 103.5 19t72.5 53v88q-24 33 -73 51.5t-103 18.5 q-67 0 -112 -29.5t-45 -85.5zM614 1260q0 66 47 112.5t113 46.5q67 0 114.5 -46.5t47.5 -112.5q0 -69 -47 -115.5t-115 -46.5q-66 0 -113 47t-47 115z" />
<glyph unicode="&#xe5;" horiz-adv-x="1128" d="M51 301q0 86 31 150t82.5 99t108.5 51.5t118 16.5q100 0 181.5 -29.5t125.5 -84.5v119q0 65 -53 104t-147 39q-159 0 -281 -104l-113 198q91 78 209 116t240 38q75 0 139.5 -11.5t125 -40t103 -72.5t68 -113.5t25.5 -158.5v-618h-316v98q-46 -56 -129 -89.5t-178 -33.5 q-59 0 -117.5 20t-109 58.5t-82 103t-31.5 144.5zM338 1296q0 92 65.5 158t157.5 66q90 0 153.5 -65.5t63.5 -158.5q0 -91 -63.5 -156t-153.5 -65q-92 0 -157.5 65t-65.5 156zM365 297q0 -56 45 -85.5t112 -29.5q55 0 103.5 19t72.5 53v88q-24 33 -73 51.5t-103 18.5 q-67 0 -112 -29.5t-45 -85.5zM477 1296q0 -34 24.5 -58t59.5 -24q34 0 57 24t23 58q0 35 -23 59.5t-57 24.5q-35 0 -59.5 -24.5t-24.5 -59.5z" />
<glyph unicode="&#xe6;" horiz-adv-x="1761" d="M51 297q0 156 100 238.5t252 82.5q100 0 187 -28.5t137 -81.5v115q0 64 -57.5 103.5t-155.5 39.5q-166 0 -297 -107l-113 201q91 78 210.5 116t242.5 38q238 0 332 -146q135 146 354 146q207 0 342 -151.5t135 -399.5v-68h-676q19 -73 80 -121.5t160 -48.5q61 0 122 23 t99 61l140 -203q-70 -63 -180 -97t-212 -34q-239 0 -368 158q-67 -71 -175.5 -114.5t-234.5 -43.5q-88 0 -163 19.5t-134.5 57.5t-93 101t-33.5 144zM365 309q0 -50 45 -76t108 -26q84 0 146.5 39.5t62.5 83.5v10q-27 33 -80.5 52.5t-111.5 19.5q-72 0 -121 -26.5t-49 -76.5 zM1040 600h379q-3 29 -14.5 56.5t-32.5 54t-58 43t-85 16.5q-85 0 -131.5 -51.5t-57.5 -118.5z" />
<glyph unicode="&#xe7;" horiz-adv-x="1024" d="M49 496q0 229 153.5 373.5t387.5 144.5q147 0 250.5 -53.5t154.5 -129.5l-204 -190q-64 94 -187 94q-101 0 -166 -64.5t-65 -174.5t65.5 -176t165.5 -66q119 0 187 96l204 -192q-45 -66 -132 -116.5t-208 -61.5l-30 -76q33 20 69 20q58 0 99 -42t41 -105 q0 -82 -67.5 -130t-168.5 -48q-73 0 -135.5 19.5t-97.5 47.5l57 119q83 -61 168 -61q40 0 68 14.5t28 42.5q0 45 -51 45q-33 0 -60 -27l-108 62l45 119q-205 24 -334 164.5t-129 351.5z" />
<glyph unicode="&#xe8;" horiz-adv-x="1122" d="M49 496q0 143 66.5 261t187.5 187.5t272 69.5q223 0 364.5 -151t141.5 -400v-68h-704q14 -74 80 -125t168 -51q58 0 132 23.5t113 60.5l134 -197q-71 -64 -183 -97.5t-231 -33.5q-153 0 -275 62t-194 182t-72 277zM172 1434h279l260 -295h-213zM373 600h407 q-3 29 -15.5 56.5t-35 54t-62.5 43t-92 16.5q-49 0 -87.5 -16t-61 -42.5t-35.5 -54t-18 -57.5z" />
<glyph unicode="&#xe9;" horiz-adv-x="1122" d="M49 496q0 143 66.5 261t187.5 187.5t272 69.5q223 0 364.5 -151t141.5 -400v-68h-704q14 -74 80 -125t168 -51q58 0 132 23.5t113 60.5l134 -197q-71 -64 -183 -97.5t-231 -33.5q-153 0 -275 62t-194 182t-72 277zM373 600h407q-3 29 -15.5 56.5t-35 54t-62.5 43 t-92 16.5q-49 0 -87.5 -16t-61 -42.5t-35.5 -54t-18 -57.5zM438 1139l260 295h279l-326 -295h-213z" />
<glyph unicode="&#xea;" horiz-adv-x="1122" d="M49 496q0 143 66.5 261t187.5 187.5t272 69.5q223 0 364.5 -151t141.5 -400v-68h-704q14 -74 80 -125t168 -51q58 0 132 23.5t113 60.5l134 -197q-71 -64 -183 -97.5t-231 -33.5q-153 0 -275 62t-194 182t-72 277zM252 1139l184 295h277l190 -295h-188l-142 166 l-135 -166h-186zM373 600h407q-3 29 -15.5 56.5t-35 54t-62.5 43t-92 16.5q-49 0 -87.5 -16t-61 -42.5t-35.5 -54t-18 -57.5z" />
<glyph unicode="&#xeb;" horiz-adv-x="1122" d="M49 496q0 143 66.5 261t187.5 187.5t272 69.5q223 0 364.5 -151t141.5 -400v-68h-704q14 -74 80 -125t168 -51q58 0 132 23.5t113 60.5l134 -197q-71 -64 -183 -97.5t-231 -33.5q-153 0 -275 62t-194 182t-72 277zM199 1260q0 66 46 112.5t113 46.5t114.5 -46.5 t47.5 -112.5q0 -69 -47 -115.5t-115 -46.5t-113.5 46.5t-45.5 115.5zM373 600h407q-3 29 -15.5 56.5t-35 54t-62.5 43t-92 16.5q-49 0 -87.5 -16t-61 -42.5t-35.5 -54t-18 -57.5zM637 1260q0 66 47 112.5t113 46.5q67 0 114 -46.5t47 -112.5q0 -69 -46.5 -115.5 t-114.5 -46.5q-67 0 -113.5 47t-46.5 115z" />
<glyph unicode="&#xec;" d="M-129 1434h279l260 -295h-213zM115 0v989h315v-989h-315z" />
<glyph unicode="&#xed;" d="M115 0v989h315v-989h-315zM137 1139l260 295h279l-326 -295h-213z" />
<glyph unicode="&#xee;" d="M-51 1139l184 295h277l190 -295h-188l-142 166l-135 -166h-186zM115 0v989h315v-989h-315z" />
<glyph unicode="&#xef;" d="M-106 1260q0 66 46 112.5t113 46.5t114.5 -46.5t47.5 -112.5q0 -69 -47 -115.5t-115 -46.5t-113.5 46.5t-45.5 115.5zM115 0v989h315v-989h-315zM332 1260q0 66 47 112.5t113 46.5q67 0 114 -46.5t47 -112.5q0 -69 -46.5 -115.5t-114.5 -46.5q-66 0 -113 47t-47 115z" />
<glyph unicode="&#xf0;" horiz-adv-x="1179" d="M49 451q0 137 58 245.5t156.5 167t219.5 58.5q212 0 328 -193q-58 150 -317 336l-304 -135l-57 141l211 92l-113 68l170 250q158 -97 265 -176l204 90l60 -135l-137 -62q335 -307 335 -676q0 -249 -144 -398t-396 -149q-242 0 -390.5 132.5t-148.5 343.5zM375 451 q0 -86 56.5 -141.5t156.5 -55.5q101 0 159 55.5t58 141.5q0 85 -58 139.5t-159 54.5q-100 0 -156.5 -54.5t-56.5 -139.5z" />
<glyph unicode="&#xf1;" horiz-adv-x="1214" d="M115 0v989h315v-121q51 61 139.5 103.5t202.5 42.5q163 0 245.5 -85.5t82.5 -228.5v-700h-316v571q0 164 -161 164q-114 0 -193 -96v-639h-315zM268 1147q0 274 232 274q44 0 81.5 -17.5t58.5 -38.5t45.5 -38.5t45.5 -17.5q27 0 44.5 25t17.5 75h159q0 -135 -58.5 -204.5 t-172.5 -69.5q-45 0 -83 17.5t-58.5 38.5t-45 38.5t-45.5 17.5q-27 0 -44 -25t-17 -75h-160z" />
<glyph unicode="&#xf2;" horiz-adv-x="1179" d="M49 496q0 105 37.5 199t105.5 165t170.5 112.5t225.5 41.5q165 0 289.5 -72t187.5 -188.5t63 -257.5t-63 -258.5t-187.5 -190t-289.5 -72.5q-163 0 -287.5 72.5t-188 190t-63.5 258.5zM186 1434h279l260 -295h-213zM375 496q0 -104 57 -173t156 -69q101 0 159 69t58 173 q0 102 -58 170.5t-159 68.5q-99 0 -156 -68.5t-57 -170.5z" />
<glyph unicode="&#xf3;" horiz-adv-x="1179" d="M49 496q0 105 37.5 199t105.5 165t170.5 112.5t225.5 41.5q165 0 289.5 -72t187.5 -188.5t63 -257.5t-63 -258.5t-187.5 -190t-289.5 -72.5q-163 0 -287.5 72.5t-188 190t-63.5 258.5zM375 496q0 -104 57 -173t156 -69q101 0 159 69t58 173q0 102 -58 170.5t-159 68.5 q-99 0 -156 -68.5t-57 -170.5zM453 1139l260 295h278l-325 -295h-213z" />
<glyph unicode="&#xf4;" horiz-adv-x="1179" d="M49 496q0 105 37.5 199t105.5 165t170.5 112.5t225.5 41.5q165 0 289.5 -72t187.5 -188.5t63 -257.5t-63 -258.5t-187.5 -190t-289.5 -72.5q-163 0 -287.5 72.5t-188 190t-63.5 258.5zM266 1139l185 295h276l191 -295h-189l-141 166l-135 -166h-187zM375 496 q0 -104 57 -173t156 -69q101 0 159 69t58 173q0 102 -58 170.5t-159 68.5q-99 0 -156 -68.5t-57 -170.5z" />
<glyph unicode="&#xf5;" horiz-adv-x="1179" d="M49 496q0 105 37.5 199t105.5 165t170.5 112.5t225.5 41.5q165 0 289.5 -72t187.5 -188.5t63 -257.5t-63 -258.5t-187.5 -190t-289.5 -72.5q-163 0 -287.5 72.5t-188 190t-63.5 258.5zM248 1147q0 274 231 274q44 0 82 -17.5t59 -38.5t45.5 -38.5t45.5 -17.5q27 0 44 25 t17 75h160q0 -135 -59 -204.5t-173 -69.5q-45 0 -82.5 17.5t-58 38.5t-45 38.5t-45.5 17.5q-27 0 -44 -25t-17 -75h-160zM375 496q0 -104 57 -173t156 -69q101 0 159 69t58 173q0 102 -58 170.5t-159 68.5q-99 0 -156 -68.5t-57 -170.5z" />
<glyph unicode="&#xf6;" horiz-adv-x="1179" d="M49 496q0 105 37.5 199t105.5 165t170.5 112.5t225.5 41.5q165 0 289.5 -72t187.5 -188.5t63 -257.5t-63 -258.5t-187.5 -190t-289.5 -72.5q-163 0 -287.5 72.5t-188 190t-63.5 258.5zM209 1260q0 66 46.5 112.5t113.5 46.5t114 -46.5t47 -112.5q0 -69 -46.5 -115.5 t-114.5 -46.5t-114 46.5t-46 115.5zM375 496q0 -104 57 -173t156 -69q101 0 159 69t58 173q0 102 -58 170.5t-159 68.5q-99 0 -156 -68.5t-57 -170.5zM647 1260q0 66 47 112.5t113 46.5q67 0 114.5 -46.5t47.5 -112.5q0 -69 -47 -115.5t-115 -46.5q-67 0 -113.5 47 t-46.5 115z" />
<glyph unicode="&#xf8;" horiz-adv-x="1179" d="M49 496q0 105 37.5 199t105.5 165t170.5 112.5t225.5 41.5q166 0 295 -76l45 51h188l-123 -139q135 -144 135 -354q0 -141 -63 -258.5t-187.5 -190t-289.5 -72.5q-170 0 -297 78l-47 -53h-185l123 141q-133 145 -133 355zM375 496q0 -66 20 -113l291 330q-46 22 -98 22 q-99 0 -156 -68.5t-57 -170.5zM487 276q40 -22 101 -22q101 0 159 69t58 173q0 56 -23 114z" />
<glyph unicode="&#xf9;" horiz-adv-x="1212" d="M115 285v704h315v-575q0 -86 42 -123t122 -37q112 0 188 96v639h316v-989h-316v119q-53 -61 -140.5 -102.5t-201.5 -41.5q-163 0 -244 83.5t-81 226.5zM203 1434h278l260 -295h-213z" />
<glyph unicode="&#xfa;" horiz-adv-x="1212" d="M115 285v704h315v-575q0 -86 42 -123t122 -37q112 0 188 96v639h316v-989h-316v119q-53 -61 -140.5 -102.5t-201.5 -41.5q-163 0 -244 83.5t-81 226.5zM469 1139l260 295h279l-326 -295h-213z" />
<glyph unicode="&#xfb;" horiz-adv-x="1212" d="M115 285v704h315v-575q0 -86 42 -123t122 -37q112 0 188 96v639h316v-989h-316v119q-53 -61 -140.5 -102.5t-201.5 -41.5q-163 0 -244 83.5t-81 226.5zM285 1139l184 295h276l191 -295h-188l-142 166l-135 -166h-186z" />
<glyph unicode="&#xfc;" horiz-adv-x="1212" d="M115 285v704h315v-575q0 -86 42 -123t122 -37q112 0 188 96v639h316v-989h-316v119q-53 -61 -140.5 -102.5t-201.5 -41.5q-163 0 -244 83.5t-81 226.5zM229 1260q0 66 46.5 112.5t113.5 46.5t114.5 -46.5t47.5 -112.5q0 -69 -47 -115.5t-115 -46.5t-114 46.5t-46 115.5z M668 1260q0 66 46.5 112.5t112.5 46.5q67 0 114.5 -46.5t47.5 -112.5q0 -69 -47 -115.5t-115 -46.5q-66 0 -112.5 46.5t-46.5 115.5z" />
<glyph unicode="&#xfd;" horiz-adv-x="1073" d="M-20 989h331l224 -627l225 627h334l-447 -1130q-29 -76 -71.5 -128t-98 -79.5t-114 -39t-134.5 -13.5q-82 0 -135 16l45 281q36 -19 78 -19q112 0 133 55l23 54zM399 1139l260 295h279l-326 -295h-213z" />
<glyph unicode="&#xfe;" horiz-adv-x="1206" d="M115 -377v1743h315v-492q116 140 293 140q192 0 313 -137t121 -381q0 -245 -121 -383t-313 -138q-174 0 -293 142v-494h-315zM430 344q29 -38 83 -64t105 -26q94 0 156 66t62 176q0 108 -62 173.5t-156 65.5q-52 0 -105.5 -25.5t-82.5 -64.5v-301z" />
<glyph unicode="&#xff;" horiz-adv-x="1073" d="M-20 989h331l224 -627l225 627h334l-447 -1130q-29 -76 -71.5 -128t-98 -79.5t-114 -39t-134.5 -13.5q-82 0 -135 16l45 281q36 -19 78 -19q112 0 133 55l23 54zM156 1260q0 66 46 112.5t113 46.5t114.5 -46.5t47.5 -112.5q0 -69 -47 -115.5t-115 -46.5t-113.5 46.5 t-45.5 115.5zM594 1260q0 66 47 112.5t113 46.5q67 0 114 -46.5t47 -112.5q0 -69 -46.5 -115.5t-114.5 -46.5q-66 0 -113 47t-47 115z" />
<glyph unicode="&#x131;" d="M115 0v989h315v-989h-315z" />
<glyph unicode="&#x153;" horiz-adv-x="1875" d="M49 496q0 105 37.5 199t105.5 165t170.5 112.5t225.5 41.5q67 0 125.5 -16.5t105.5 -47t79 -58.5t67 -67q150 189 366 189q222 0 363 -151t141 -400v-68h-705q21 -74 85.5 -125t170.5 -51q64 0 128 22t106 60l139 -195q-72 -64 -184.5 -97.5t-231.5 -33.5 q-71 0 -130.5 15.5t-106.5 46t-77 58t-66 67.5q-157 -187 -375 -187q-163 0 -287.5 72.5t-188 190t-63.5 258.5zM375 496q0 -111 59 -177.5t154 -66.5q98 0 157.5 66t59.5 178q0 109 -59.5 174t-157.5 65q-95 0 -154 -65t-59 -174zM1128 600h406q-3 29 -15.5 57t-35 55 t-63 43.5t-91.5 16.5q-93 0 -142.5 -52.5t-58.5 -119.5z" />
<glyph unicode="&#x192;" horiz-adv-x="952" d="M-2 -330l178 803h-96v275h156l65 299q32 150 152.5 244.5t277.5 94.5q175 0 264 -94l-127 -256q-37 43 -92 43q-46 0 -82 -29.5t-49 -82.5l-49 -219h205v-275h-264l-181 -803h-358z" />
<glyph unicode="&#x2c6;" horiz-adv-x="651" d="M0 1139l184 295h277l190 -295h-188l-141 166l-136 -166h-186z" />
<glyph unicode="&#x2da;" horiz-adv-x="440" d="M0 1296q0 92 65.5 158t157.5 66q90 0 153.5 -65.5t63.5 -158.5q0 -91 -63.5 -156t-153.5 -65q-92 0 -157.5 65t-65.5 156zM139 1296q0 -34 24.5 -58t59.5 -24q34 0 57 24t23 58q0 35 -23 59.5t-57 24.5q-35 0 -59.5 -24.5t-24.5 -59.5z" />
<glyph unicode="&#x2dc;" horiz-adv-x="684" d="M0 1147q0 274 231 274q44 0 82 -17.5t59 -38.5t45.5 -38.5t45.5 -17.5q27 0 44 25t17 75h160q0 -135 -58.5 -204.5t-172.5 -69.5q-45 0 -83 17.5t-58.5 38.5t-45 38.5t-45.5 17.5q-27 0 -44 -25t-17 -75h-160z" />
<glyph unicode="&#x401;" horiz-adv-x="1206" d="M123 0v1366h1001v-307h-649v-213h635v-307h-635v-232h649v-307h-1001zM244 1602q0 66 46 112.5t113 46.5t114.5 -46.5t47.5 -112.5q0 -69 -47 -115.5t-115 -46.5t-113.5 46.5t-45.5 115.5zM682 1602q0 66 47 112.5t113 46.5q67 0 114.5 -46.5t47.5 -112.5 q0 -69 -47 -115.5t-115 -46.5q-66 0 -113 47t-47 115z" />
<glyph unicode="&#x402;" horiz-adv-x="1619" d="M45 1059v307h1116v-307h-381v-219q154 37 277 37q261 0 394.5 -125.5t133.5 -331.5v-17q0 -193 -142 -310.5t-368 -117.5v295q72 0 113 38t41 98v10q0 74 -58.5 113.5t-160.5 39.5q-132 0 -230 -39v-530h-352v1059h-383z" />
<glyph unicode="&#x403;" horiz-adv-x="1191" d="M123 0v1366h1001v-307h-649v-1059h-352zM475 1481l260 295h279l-326 -295h-213z" />
<glyph unicode="&#x404;" horiz-adv-x="1417" d="M53 682q0 207 97 369t265.5 250t377.5 88q118 0 218 -31t171.5 -86t120.5 -116t86 -134l-304 -143q-35 85 -118 141.5t-185 56.5q-125 0 -213.5 -62.5t-128.5 -168.5h557v-307h-565q36 -116 127 -184t223 -68q102 0 185 56.5t118 141.5l304 -143q-28 -57 -64 -106.5 t-89 -98.5t-115.5 -84t-147.5 -56.5t-180 -21.5q-209 0 -377.5 88.5t-265.5 250.5t-97 368z" />
<glyph unicode="&#x405;" horiz-adv-x="1241" d="M25 193l186 264q80 -80 192.5 -130.5t243.5 -50.5q89 0 142 31.5t53 81.5q0 29 -26.5 50.5t-71.5 35t-103 25.5t-122 27t-128 34.5t-122 52.5t-103 76t-71.5 110.5t-26.5 151.5q0 87 36.5 164.5t103.5 138t172 96t232 35.5q335 0 555 -190l-192 -252q-84 69 -190 105 t-210 36q-74 0 -110.5 -26.5t-36.5 -71.5q0 -28 26.5 -48t71 -34t102.5 -26.5t122 -28t128 -35t122 -52.5t102.5 -76t71 -108.5t26.5 -146.5q0 -209 -149 -333t-420 -124q-378 0 -606 218z" />
<glyph unicode="&#x406;" horiz-adv-x="598" d="M123 0v1366h352v-1366h-352z" />
<glyph unicode="&#x407;" horiz-adv-x="598" d="M-80 1602q0 66 46.5 112.5t113.5 46.5t114.5 -46.5t47.5 -112.5q0 -69 -47 -115.5t-115 -46.5t-114 46.5t-46 115.5zM123 0v1366h352v-1366h-352zM358 1602q0 66 47 112.5t113 46.5q67 0 114.5 -46.5t47.5 -112.5q0 -69 -47 -115.5t-115 -46.5q-66 0 -113 47t-47 115z " />
<glyph unicode="&#x408;" horiz-adv-x="1007" d="M6 98l148 269q96 -80 196 -80q84 0 133 50t49 136v893h353v-897q0 -246 -135.5 -370t-368.5 -124q-236 0 -375 123z" />
<glyph unicode="&#x409;" horiz-adv-x="2236" d="M47 -25v312q50 0 87 17t69.5 59.5t55 119t36.5 191.5l82 692h1018v-459h331q149 0 258.5 -62.5t163.5 -163.5t54 -226q0 -126 -54 -228t-163.5 -164.5t-258.5 -62.5h-684v1059h-348l-49 -412q-19 -162 -59.5 -282t-93 -194t-125.5 -118.5t-148.5 -61t-171.5 -16.5z M1395 307h284q72 0 118 39.5t46 108.5q0 67 -46 106t-118 39h-284v-293z" />
<glyph unicode="&#x40a;" horiz-adv-x="2236" d="M123 0v1366h352v-510h567v510h353v-510h358q210 0 329.5 -122.5t119.5 -305.5t-119.5 -305.5t-329.5 -122.5h-711v549h-567v-549h-352zM1395 307h315q58 0 95.5 32.5t37.5 88.5q0 57 -37 89t-96 32h-315v-242z" />
<glyph unicode="&#x40b;" horiz-adv-x="1693" d="M45 1059v307h1116v-307h-381v-219q154 37 277 37q263 0 395.5 -138.5t132.5 -378.5v-360h-356v360q0 112 -56.5 160.5t-162.5 48.5q-132 0 -230 -39v-530h-352v1059h-383z" />
<glyph unicode="&#x40c;" horiz-adv-x="1339" d="M123 0v1366h352v-561l420 561h434l-530 -639l559 -727h-432l-359 514l-92 -115v-399h-352zM559 1481l260 295h279l-326 -295h-213z" />
<glyph unicode="&#x40e;" horiz-adv-x="1341" d="M-23 1366h398l295 -639l297 639h397l-555 -1098q-34 -66 -76 -117t-98.5 -92t-132.5 -62.5t-168 -21.5q-100 0 -192 27.5t-154 77.5l139 274q90 -67 176 -67q63 0 99.5 23.5t68.5 78.5zM309 1604l135 110q87 -119 226 -119q143 0 223 119l135 -110q-63 -85 -156 -133 t-202 -48q-107 0 -202 48.5t-159 132.5z" />
<glyph unicode="&#x40f;" horiz-adv-x="1517" d="M123 0v1366h352v-1059h567v1059h353v-1366h-459v-256h-352v256h-461z" />
<glyph unicode="&#x410;" horiz-adv-x="1427" d="M-23 0l515 1366h442l516 -1366h-399l-68 197h-539l-67 -197h-400zM539 504h348l-174 514z" />
<glyph unicode="&#x411;" horiz-adv-x="1316" d="M123 0v1366h1067v-307h-715v-176h344q146 0 252.5 -61t158.5 -159.5t52 -220.5t-52 -221t-158.5 -160t-252.5 -61h-696zM475 307h301q65 0 106.5 36t41.5 99q0 62 -41.5 97.5t-106.5 35.5h-301v-268z" />
<glyph unicode="&#x412;" horiz-adv-x="1392" d="M123 0v1366h774q97 0 175.5 -30t126 -80t72.5 -111t25 -127q0 -123 -66 -206.5t-167 -106.5q110 -17 185 -112t75 -222q0 -158 -104.5 -264.5t-296.5 -106.5h-799zM475 297h354q63 0 99.5 33.5t36.5 89.5q0 53 -36.5 88t-99.5 35h-354v-246zM475 842h342q54 0 87.5 31.5 t33.5 82.5q0 50 -33.5 81.5t-87.5 31.5h-342v-227z" />
<glyph unicode="&#x413;" horiz-adv-x="1191" d="M123 0v1366h1001v-307h-649v-1059h-352z" />
<glyph unicode="&#x414;" horiz-adv-x="1546" d="M47 -252v539q54 8 89.5 25.5t68.5 58.5t54.5 115t35.5 188l82 692h1018v-1059h123v-559h-355v252h-764v-252h-352zM496 307h546v752h-348l-49 -412q-25 -216 -149 -340z" />
<glyph unicode="&#x415;" horiz-adv-x="1206" d="M123 0v1366h1001v-307h-649v-213h635v-307h-635v-232h649v-307h-1001z" />
<glyph unicode="&#x416;" horiz-adv-x="1988" d="M-18 0l559 727l-531 639h432l377 -504v504h352v-502l375 502h432l-528 -639l559 -727h-432l-360 514l-46 -57v-457h-352v453l-47 61l-360 -514h-430z" />
<glyph unicode="&#x417;" horiz-adv-x="1277" d="M33 190l178 240q69 -67 183 -105t212 -38q118 0 184 37t66 96q0 60 -60 87.5t-204 27.5h-279v309h279q112 0 177 27t65 79q0 62 -69 93.5t-181 31.5q-97 0 -195 -34t-168 -97l-170 221q90 101 238.5 161t331.5 60q260 0 412.5 -102t152.5 -272q0 -116 -86.5 -201 t-212.5 -106q56 -5 111.5 -29t103 -63.5t77 -100t29.5 -131.5q0 -179 -166 -292.5t-424 -113.5q-190 0 -346.5 60t-238.5 155z" />
<glyph unicode="&#x418;" horiz-adv-x="1515" d="M123 0v1366h352v-805l553 805h365v-1366h-355v844l-575 -844h-340z" />
<glyph unicode="&#x419;" horiz-adv-x="1515" d="M123 0v1366h352v-805l553 805h365v-1366h-355v844l-575 -844h-340zM397 1604l135 110q87 -119 226 -119q143 0 223 119l135 -110q-63 -85 -156 -133t-202 -48q-107 0 -202 48.5t-159 132.5z" />
<glyph unicode="&#x41a;" horiz-adv-x="1339" d="M123 0v1366h352v-561l420 561h434l-530 -639l559 -727h-432l-359 514l-92 -115v-399h-352z" />
<glyph unicode="&#x41b;" horiz-adv-x="1517" d="M47 -25v312q50 0 87 17t69.5 59.5t55 119t36.5 191.5l82 692h1018v-1366h-353v1059h-348l-49 -412q-19 -162 -59.5 -282t-93 -194t-125.5 -118.5t-148.5 -61t-171.5 -16.5z" />
<glyph unicode="&#x41c;" horiz-adv-x="1796" d="M123 0v1366h489l285 -741l287 741h489v-1366h-352v889l-346 -889h-156l-344 889v-889h-352z" />
<glyph unicode="&#x41d;" horiz-adv-x="1517" d="M123 0v1366h352v-510h567v510h353v-1366h-353v549h-567v-549h-352z" />
<glyph unicode="&#x41e;" horiz-adv-x="1568" d="M53 682q0 153 55.5 285.5t152.5 224.5t232.5 144.5t290.5 52.5t290 -52.5t231.5 -144.5t152 -224.5t55.5 -285.5t-55.5 -285.5t-152 -224.5t-231.5 -144.5t-290 -52.5t-290.5 52.5t-232.5 144.5t-152.5 224.5t-55.5 285.5zM412 682q0 -169 102.5 -282t269.5 -113 q166 0 268.5 113t102.5 282q0 170 -102.5 282.5t-268.5 112.5q-167 0 -269.5 -112.5t-102.5 -282.5z" />
<glyph unicode="&#x41f;" horiz-adv-x="1517" d="M123 0v1366h1272v-1366h-353v1059h-567v-1059h-352z" />
<glyph unicode="&#x420;" horiz-adv-x="1316" d="M123 0v1366h684q112 0 203 -36t150 -98.5t90.5 -144.5t31.5 -176q0 -125 -53.5 -226t-163 -163.5t-258.5 -62.5h-332v-459h-352zM475 766h285q72 0 118 39t46 106q0 69 -46 108.5t-118 39.5h-285v-293z" />
<glyph unicode="&#x421;" horiz-adv-x="1417" d="M53 682q0 207 97 369t265.5 250t377.5 88q118 0 218 -31t171.5 -86t120.5 -116t86 -134l-304 -143q-35 84 -115.5 141t-176.5 57q-166 0 -273.5 -113t-107.5 -282t107.5 -282t273.5 -113q96 0 176.5 57t115.5 141l304 -143q-28 -57 -64 -106.5t-89 -98.5t-115.5 -84 t-147.5 -56.5t-180 -21.5q-209 0 -377.5 88.5t-265.5 250.5t-97 368z" />
<glyph unicode="&#x422;" horiz-adv-x="1206" d="M45 1059v307h1116v-307h-381v-1059h-352v1059h-383z" />
<glyph unicode="&#x423;" horiz-adv-x="1341" d="M-23 1366h398l295 -639l297 639h397l-555 -1098q-34 -66 -76 -117t-98.5 -92t-132.5 -62.5t-168 -21.5q-100 0 -192 27.5t-154 77.5l139 274q90 -67 176 -67q63 0 99.5 23.5t68.5 78.5z" />
<glyph unicode="&#x424;" horiz-adv-x="1802" d="M53 682q0 235 175 374t495 169v141h354v-141q320 -30 495 -169t175 -374q0 -238 -174.5 -375.5t-495.5 -167.5v-139h-354v139q-321 30 -495.5 168.5t-174.5 374.5zM412 682q0 -188 311 -229v458q-311 -41 -311 -229zM1077 453q312 41 312 229t-312 229v-458z" />
<glyph unicode="&#x425;" horiz-adv-x="1384" d="M-23 0l478 700l-447 666h416l268 -428l264 428h418l-444 -664l475 -702h-416l-297 459l-297 -459h-418z" />
<glyph unicode="&#x426;" horiz-adv-x="1546" d="M123 0v1366h352v-1059h567v1059h353v-1059h123v-559h-355v252h-1040z" />
<glyph unicode="&#x427;" horiz-adv-x="1372" d="M92 958v408h357v-408q0 -112 56.5 -160t162.5 -48q133 0 229 38v578h352v-1366h-352v479q-154 -37 -279 -37q-262 0 -394 138t-132 378z" />
<glyph unicode="&#x428;" horiz-adv-x="2082" d="M123 0v1366h352v-1059h391v1059h353v-1059h389v1059h352v-1366h-1837z" />
<glyph unicode="&#x429;" horiz-adv-x="2113" d="M123 0v1366h352v-1059h391v1059h353v-1059h389v1059h352v-1059h123v-559h-352v252h-1608z" />
<glyph unicode="&#x42a;" horiz-adv-x="1622" d="M45 1059v307h735v-459h332q149 0 258.5 -62.5t163 -163.5t53.5 -226q0 -94 -31.5 -176t-90.5 -144.5t-150 -98.5t-203 -36h-684v1059h-383zM780 307h285q71 0 117.5 39.5t46.5 108.5q0 67 -46.5 106t-117.5 39h-285v-293z" />
<glyph unicode="&#x42b;" horiz-adv-x="1857" d="M123 0v1366h352v-459h332q149 0 258.5 -62.5t163 -163.5t53.5 -226q0 -94 -31.5 -176t-90.5 -144.5t-150 -98.5t-203 -36h-684zM475 307h285q72 0 118 39.5t46 108.5q0 67 -46 106t-118 39h-285v-293zM1382 0v1366h353v-1366h-353z" />
<glyph unicode="&#x42c;" horiz-adv-x="1316" d="M123 0v1366h352v-459h332q149 0 258.5 -62.5t163 -163.5t53.5 -226q0 -94 -31.5 -176t-90.5 -144.5t-150 -98.5t-203 -36h-684zM475 307h285q72 0 118 39.5t46 108.5q0 67 -46 106t-118 39h-285v-293z" />
<glyph unicode="&#x42d;" horiz-adv-x="1417" d="M29 342l303 143q35 -85 117 -141.5t186 -56.5q132 0 221.5 68t124.5 184h-561v307h555q-38 106 -126 168.5t-214 62.5q-104 0 -186 -56.5t-117 -141.5l-303 143q28 57 64 107.5t89 99t115.5 83.5t147 56t180.5 21q208 0 376 -88t265.5 -250t97.5 -369q0 -155 -57 -287.5 t-155.5 -224t-235 -143.5t-291.5 -52q-95 0 -180 21.5t-147.5 56.5t-115.5 84t-89 98.5t-64 106.5z" />
<glyph unicode="&#x42e;" horiz-adv-x="2201" d="M123 0v1366h352v-510h232q57 240 250.5 386.5t459.5 146.5q155 0 290.5 -52.5t232.5 -144.5t152.5 -224.5t55.5 -285.5t-55.5 -285.5t-152.5 -224.5t-232.5 -144.5t-290.5 -52.5q-278 0 -476.5 158t-242.5 416h-223v-549h-352zM1047 682q0 -169 102 -282t268 -113 t269.5 113t103.5 282q0 170 -103.5 282.5t-269.5 112.5t-268 -112.5t-102 -282.5z" />
<glyph unicode="&#x42f;" horiz-adv-x="1353" d="M66 0l278 502q-52 18 -98 50.5t-87 81t-65 120.5t-24 157q0 197 128 326t349 129h684v-1366h-354v459h-181l-227 -459h-403zM430 913q0 -69 48 -108t120 -39h279v293h-279q-72 0 -120 -39.5t-48 -106.5z" />
<glyph unicode="&#x430;" horiz-adv-x="1128" d="M51 301q0 86 31 150t82.5 99t108.5 51.5t118 16.5q100 0 181.5 -29.5t125.5 -84.5v119q0 65 -53 104t-147 39q-159 0 -281 -104l-113 198q91 78 209 116t240 38q75 0 139.5 -11.5t125 -40t103 -72.5t68 -113.5t25.5 -158.5v-618h-316v98q-46 -56 -129 -89.5t-178 -33.5 q-59 0 -117.5 20t-109 58.5t-82 103t-31.5 144.5zM365 297q0 -56 45 -85.5t112 -29.5q55 0 103.5 19t72.5 53v88q-24 33 -73 51.5t-103 18.5q-67 0 -112 -29.5t-45 -85.5z" />
<glyph unicode="&#x431;" horiz-adv-x="1181" d="M51 541q0 238 60.5 397.5t176 244t292.5 109.5q172 26 172 74h340q0 -214 -404 -272q-161 -23 -240.5 -81t-103.5 -145q119 146 320 146q137 0 244.5 -72t163.5 -189t56 -255q0 -105 -37 -199.5t-104.5 -166.5t-170.5 -114.5t-228 -42.5q-165 0 -288 74.5t-186 202 t-63 289.5zM375 498q0 -105 57 -174.5t156 -69.5q101 0 159 69.5t58 174.5q0 101 -58 169t-159 68q-99 0 -156 -68t-57 -169z" />
<glyph unicode="&#x432;" horiz-adv-x="1232" d="M115 0v989h671q76 0 137 -22t98.5 -58.5t57 -81t19.5 -92.5q0 -84 -47.5 -143t-122.5 -82q85 -17 138.5 -83.5t53.5 -156.5q0 -115 -82 -192.5t-233 -77.5h-690zM430 244h295q34 0 56 18.5t22 48.5t-21.5 50t-56.5 20h-295v-137zM430 623h283q30 0 48.5 17t18.5 44 q0 28 -18 44.5t-49 16.5h-283v-122z" />
<glyph unicode="&#x433;" horiz-adv-x="931" d="M115 0v989h784v-274h-469v-715h-315z" />
<glyph unicode="&#x434;" horiz-adv-x="1239" d="M37 -252v514q31 3 51.5 12.5t40.5 35t34 75.5t25 129l66 475h846v-715h108v-526h-315v252h-541v-252h-315zM403 274h381v441h-258l-26 -211q-18 -148 -97 -230z" />
<glyph unicode="&#x435;" horiz-adv-x="1122" d="M49 496q0 143 66.5 261t187.5 187.5t272 69.5q223 0 364.5 -151t141.5 -400v-68h-704q14 -74 80 -125t168 -51q58 0 132 23.5t113 60.5l134 -197q-71 -64 -183 -97.5t-231 -33.5q-153 0 -275 62t-194 182t-72 277zM373 600h407q-3 29 -15.5 56.5t-35 54t-62.5 43 t-92 16.5q-49 0 -87.5 -16t-61 -42.5t-35.5 -54t-18 -57.5z" />
<glyph unicode="&#x436;" horiz-adv-x="1581" d="M-12 0l383 539l-365 450h381l246 -323v323h315v-323l246 323h381l-365 -450l383 -539h-389l-217 350l-39 -47v-303h-315v303l-39 47l-217 -350h-389z" />
<glyph unicode="&#x437;" horiz-adv-x="1019" d="M14 133l142 186q66 -50 154.5 -76t170.5 -26q164 0 164 78q0 86 -178 86h-195v235h195q87 0 123.5 21t36.5 61q0 32 -43.5 53t-112.5 21q-181 0 -293 -106l-151 180q77 77 187 121.5t241 44.5q241 1 368 -72.5t129 -202.5q0 -84 -74.5 -147.5t-181.5 -81.5 q65 -4 126 -31.5t105 -81t44 -121.5q2 -133 -132 -215.5t-358 -83.5q-150 0 -271 43t-196 115z" />
<glyph unicode="&#x438;" horiz-adv-x="1214" d="M115 0v989h315v-518l352 518h318v-989h-316v545l-368 -545h-301z" />
<glyph unicode="&#x439;" horiz-adv-x="1214" d="M115 0v989h315v-518l352 518h318v-989h-316v545l-368 -545h-301zM248 1262l135 110q87 -119 225 -119q143 0 223 119l136 -110q-62 -85 -156 -133t-203 -48q-107 0 -201.5 48.5t-158.5 132.5z" />
<glyph unicode="&#x43a;" horiz-adv-x="1118" d="M115 0v989h315v-395l301 395h381l-364 -450l382 -539h-389l-217 350l-94 -112v-238h-315z" />
<glyph unicode="&#x43b;" horiz-adv-x="1214" d="M37 -25v258q58 0 94 63t57 218l66 475h846v-989h-316v715h-258l-30 -242q-32 -251 -139.5 -374.5t-319.5 -123.5z" />
<glyph unicode="&#x43c;" horiz-adv-x="1474" d="M115 0v989h415l207 -534l207 534h416v-989h-313v592l-228 -592h-162l-227 592v-592h-315z" />
<glyph unicode="&#x43d;" horiz-adv-x="1214" d="M115 0v989h315v-340h354v340h316v-989h-316v375h-354v-375h-315z" />
<glyph unicode="&#x43e;" horiz-adv-x="1179" d="M49 496q0 105 37.5 199t105.5 165t170.5 112.5t225.5 41.5q165 0 289.5 -72t187.5 -188.5t63 -257.5t-63 -258.5t-187.5 -190t-289.5 -72.5q-163 0 -287.5 72.5t-188 190t-63.5 258.5zM375 496q0 -104 57 -173t156 -69q101 0 159 69t58 173q0 102 -58 170.5t-159 68.5 q-99 0 -156 -68.5t-57 -170.5z" />
<glyph unicode="&#x43f;" horiz-adv-x="1214" d="M115 0v989h985v-989h-316v715h-354v-715h-315z" />
<glyph unicode="&#x440;" horiz-adv-x="1206" d="M115 -377v1366h315v-115q116 140 293 140q192 0 313 -137t121 -381q0 -245 -121 -383t-313 -138q-174 0 -293 142v-494h-315zM430 344q29 -38 83 -64t105 -26q94 0 156 66t62 176q0 108 -62 173.5t-156 65.5q-52 0 -105.5 -25.5t-82.5 -64.5v-301z" />
<glyph unicode="&#x441;" horiz-adv-x="1024" d="M49 496q0 229 153.5 373.5t387.5 144.5q147 0 250.5 -53.5t154.5 -129.5l-204 -190q-64 94 -187 94q-101 0 -166 -64.5t-65 -174.5t65.5 -176t165.5 -66q119 0 187 96l204 -192q-52 -75 -155.5 -129t-249.5 -54q-234 0 -387.5 145t-153.5 376z" />
<glyph unicode="&#x442;" horiz-adv-x="919" d="M33 715v274h854v-274h-269v-715h-315v715h-270z" />
<glyph unicode="&#x443;" horiz-adv-x="1073" d="M-20 989h331l224 -627l225 627h334l-447 -1130q-29 -76 -71.5 -128t-98 -79.5t-114 -39t-134.5 -13.5q-82 0 -135 16l45 281q36 -19 78 -19q112 0 133 55l23 54z" />
<glyph unicode="&#x444;" horiz-adv-x="1738" d="M61 494q0 245 108.5 382.5t281.5 137.5q157 0 262 -142v494h313v-492q104 140 262 140q172 0 280.5 -137t108.5 -381q0 -245 -108.5 -383t-280.5 -138q-155 0 -262 142v-494h-313v492q-104 -140 -262 -140q-172 0 -281 137.5t-109 381.5zM379 494q0 -108 50.5 -174 t127.5 -66q42 0 87 25.5t69 64.5v301q-25 38 -70 64t-86 26q-77 0 -127.5 -65.5t-50.5 -175.5zM1026 344q25 -38 70.5 -64t85.5 -26q77 0 128.5 66t51.5 176q0 108 -51.5 173.5t-128.5 65.5q-40 0 -85 -25.5t-71 -64.5v-301z" />
<glyph unicode="&#x445;" horiz-adv-x="1048" d="M-12 0l338 508l-318 481h346l170 -268l168 268h346l-315 -481l338 -508h-346l-191 299l-192 -299h-344z" />
<glyph unicode="&#x446;" horiz-adv-x="1239" d="M115 0v989h315v-715h354v715h316v-715h108v-526h-315v252h-778z" />
<glyph unicode="&#x447;" horiz-adv-x="1189" d="M90 614v375h316v-272q0 -88 43 -125t131 -37q110 0 180 41v393h313v-989h-313v346q-115 -70 -297 -70q-195 0 -284 87t-89 251z" />
<glyph unicode="&#x448;" horiz-adv-x="1759" d="M115 0v989h315v-715h293v715h315v-715h291v715h316v-989h-1530z" />
<glyph unicode="&#x449;" horiz-adv-x="1789" d="M115 0v989h315v-715h293v715h315v-715h291v715h316v-715h114v-526h-313v252h-1331z" />
<glyph unicode="&#x44a;" horiz-adv-x="1353" d="M33 715v274h585v-317h326q172 0 266.5 -96t94.5 -240q0 -141 -98 -238.5t-263 -97.5h-641v715h-270zM618 254h271q44 0 70 23t26 59t-26 59t-70 23h-271v-164z" />
<glyph unicode="&#x44b;" horiz-adv-x="1652" d="M115 0v989h315v-317h326q172 0 266 -96t94 -240q0 -141 -97 -238.5t-263 -97.5h-641zM430 254h270q44 0 70.5 23t26.5 59t-26.5 59t-70.5 23h-270v-164zM1223 0v989h315v-989h-315z" />
<glyph unicode="&#x44c;" horiz-adv-x="1165" d="M115 0v989h315v-317h326q172 0 266 -96t94 -240q0 -141 -97 -238.5t-263 -97.5h-641zM430 254h270q44 0 70.5 23t26.5 59t-26.5 59t-70.5 23h-270v-164z" />
<glyph unicode="&#x44d;" horiz-adv-x="1024" d="M29 158l192 166q34 -48 84.5 -77.5t110.5 -29.5q79 0 138 45t83 127h-342v217h340q-24 79 -83 122.5t-136 43.5q-119 0 -195 -104l-192 163q53 77 155.5 130t249.5 53q234 0 387.5 -144.5t153.5 -373.5q0 -231 -153.5 -376t-387.5 -145q-146 0 -248.5 53.5t-156.5 129.5z " />
<glyph unicode="&#x44e;" horiz-adv-x="1701" d="M115 0v989h315v-340h164q48 162 184 263.5t334 101.5q165 0 290 -72t188 -188.5t63 -257.5q0 -105 -37.5 -199t-105 -166t-171 -114t-227.5 -42q-209 0 -348.5 112t-177.5 288h-156v-375h-315zM897 496q0 -104 57.5 -173t157.5 -69q101 0 159 69t58 173q0 102 -58 170.5 t-159 68.5q-99 0 -157 -68.5t-58 -170.5z" />
<glyph unicode="&#x44f;" horiz-adv-x="1204" d="M88 0l213 344q-84 29 -145.5 107t-61.5 202q0 141 97.5 238.5t263.5 97.5h641v-989h-316v317h-174l-166 -317h-352zM414 653q0 -36 26 -59t70 -23h270v164h-270q-42 0 -69 -23t-27 -59z" />
<glyph unicode="&#x451;" horiz-adv-x="1122" d="M49 496q0 143 66.5 261t187.5 187.5t272 69.5q223 0 364.5 -151t141.5 -400v-68h-704q14 -74 80 -125t168 -51q58 0 132 23.5t113 60.5l134 -197q-71 -64 -183 -97.5t-231 -33.5q-153 0 -275 62t-194 182t-72 277zM201 1260q0 66 46 112.5t113 46.5t114.5 -46.5 t47.5 -112.5q0 -69 -47 -115.5t-115 -46.5t-113.5 46.5t-45.5 115.5zM373 600h407q-3 29 -15.5 56.5t-35 54t-62.5 43t-92 16.5q-49 0 -87.5 -16t-61 -42.5t-35.5 -54t-18 -57.5zM639 1260q0 66 47 112.5t113 46.5q67 0 114.5 -46.5t47.5 -112.5q0 -69 -47 -115.5 t-115 -46.5q-67 0 -113.5 47t-46.5 115z" />
<glyph unicode="&#x452;" horiz-adv-x="1224" d="M16 1075v172h109v119h315v-119h287v-172h-287v-207q51 61 139.5 103.5t204.5 42.5q162 0 244 -83.5t82 -225.5v-697q0 -188 -96.5 -298.5t-286.5 -110.5q-97 0 -148 14.5t-112 54.5l80 232q30 -24 57 -33.5t70 -9.5q57 0 89 38t32 113v567q0 87 -42 123.5t-122 36.5 q-108 0 -191 -96v-639h-315v1075h-109z" />
<glyph unicode="&#x453;" horiz-adv-x="931" d="M115 0v989h784v-274h-469v-715h-315zM375 1139l260 295h278l-325 -295h-213z" />
<glyph unicode="&#x454;" horiz-adv-x="1024" d="M49 496q0 229 153.5 373.5t387.5 144.5q147 0 250.5 -53.5t154.5 -129.5l-192 -163q-76 104 -193 104q-80 0 -139 -43.5t-84 -122.5h344v-217h-344q24 -82 83.5 -127t139.5 -45q59 0 109 29.5t84 77.5l192 -166q-52 -75 -155.5 -129t-249.5 -54q-234 0 -387.5 145 t-153.5 376z" />
<glyph unicode="&#x455;" horiz-adv-x="991" d="M31 127l131 217q58 -51 160.5 -91t187.5 -40q133 0 133 76q0 23 -24.5 38t-65 22.5t-92.5 17.5t-105.5 20.5t-105.5 34t-92.5 55t-65 86t-24.5 125.5q0 137 113.5 231.5t310.5 94.5q235 0 413 -131l-121 -209q-47 46 -126 77t-164 31q-55 0 -90 -20t-35 -51 q0 -23 31.5 -37t82.5 -23.5t112 -20t122.5 -33t112.5 -56t82.5 -94.5t31.5 -144q0 -145 -120.5 -236.5t-329.5 -91.5q-132 0 -258.5 41.5t-204.5 110.5z" />
<glyph unicode="&#x456;" d="M92 1260q0 75 52.5 127.5t127.5 52.5t128 -52.5t53 -127.5t-53 -129t-128 -54t-127.5 54t-52.5 129zM115 0v989h315v-989h-315z" />
<glyph unicode="&#x457;" d="M-106 1260q0 66 46 112.5t113 46.5t114.5 -46.5t47.5 -112.5q0 -69 -47 -115.5t-115 -46.5t-113.5 46.5t-45.5 115.5zM115 0v989h315v-989h-315zM332 1260q0 66 47 112.5t113 46.5q67 0 114 -46.5t47 -112.5q0 -69 -46.5 -115.5t-114.5 -46.5q-66 0 -113 47t-47 115z" />
<glyph unicode="&#x458;" d="M-213 -332l80 232q30 -24 57 -33.5t70 -9.5q57 0 89 38t32 113v981h315v-981q0 -188 -96 -298.5t-287 -110.5q-97 0 -148 14.5t-112 54.5zM92 1260q0 75 52.5 127.5t127.5 52.5t128 -52.5t53 -127.5t-53 -129t-128 -54t-127.5 54t-52.5 129z" />
<glyph unicode="&#x459;" horiz-adv-x="1835" d="M37 -25v258q58 0 94 63t57 218l66 475h846v-317h325q172 0 266.5 -96t94.5 -240q0 -141 -97.5 -238.5t-263.5 -97.5h-641v715h-258l-30 -242q-32 -251 -139.5 -374.5t-319.5 -123.5zM1100 254h270q44 0 70 23t26 59t-26 59t-70 23h-270v-164z" />
<glyph unicode="&#x45a;" horiz-adv-x="1835" d="M115 0v989h315v-327h354v327h316v-327h332q169 0 261.5 -95t92.5 -237q0 -138 -95.5 -234t-258.5 -96h-648v387h-354v-387h-315zM1100 254h276q41 0 65.5 21.5t24.5 54.5q0 34 -24.5 56t-65.5 22h-276v-154z" />
<glyph unicode="&#x45b;" horiz-adv-x="1224" d="M16 1073v174h109v119h315v-119h287v-174h-287v-205q51 61 139.5 103.5t202.5 42.5q163 0 245.5 -83.5t82.5 -225.5v-705h-315v575q0 87 -42 123.5t-122 36.5q-112 0 -191 -96v-639h-315v1073h-109z" />
<glyph unicode="&#x45c;" horiz-adv-x="1118" d="M115 0v989h315v-395l301 395h381l-364 -450l382 -539h-389l-217 350l-94 -112v-238h-315zM428 1139l260 295h279l-326 -295h-213z" />
<glyph unicode="&#x45e;" horiz-adv-x="1073" d="M-20 989h331l224 -627l225 627h334l-447 -1130q-29 -76 -71.5 -128t-98 -79.5t-114 -39t-134.5 -13.5q-82 0 -135 16l45 281q36 -19 78 -19q112 0 133 55l23 54zM176 1262l135 110q87 -119 226 -119q143 0 223 119l135 -110q-63 -85 -156 -133t-202 -48q-107 0 -202 48.5 t-159 132.5z" />
<glyph unicode="&#x45f;" horiz-adv-x="1214" d="M115 0v989h315v-715h354v715h316v-989h-336v-254h-313v254h-336z" />
<glyph unicode="&#x490;" horiz-adv-x="1191" d="M123 0v1366h649v252h352v-559h-649v-1059h-352z" />
<glyph unicode="&#x491;" horiz-adv-x="931" d="M115 0v989h469v254h315v-528h-469v-715h-315z" />
<glyph unicode="&#x2000;" horiz-adv-x="888" />
<glyph unicode="&#x2001;" horiz-adv-x="1776" />
<glyph unicode="&#x2002;" horiz-adv-x="888" />
<glyph unicode="&#x2003;" horiz-adv-x="1776" />
<glyph unicode="&#x2004;" horiz-adv-x="592" />
<glyph unicode="&#x2005;" horiz-adv-x="444" />
<glyph unicode="&#x2006;" horiz-adv-x="296" />
<glyph unicode="&#x2007;" horiz-adv-x="296" />
<glyph unicode="&#x2008;" horiz-adv-x="222" />
<glyph unicode="&#x2009;" horiz-adv-x="355" />
<glyph unicode="&#x200a;" horiz-adv-x="98" />
<glyph unicode="&#x2010;" horiz-adv-x="614" d="M61 365v264h492v-264h-492z" />
<glyph unicode="&#x2011;" horiz-adv-x="614" d="M61 365v264h492v-264h-492z" />
<glyph unicode="&#x2012;" horiz-adv-x="614" d="M61 365v264h492v-264h-492z" />
<glyph unicode="&#x2013;" horiz-adv-x="1214" d="M61 365v264h1092v-264h-1092z" />
<glyph unicode="&#x2014;" horiz-adv-x="1705" d="M61 365v264h1584v-264h-1584z" />
<glyph unicode="&#x2018;" horiz-adv-x="548" d="M70 973q0 123 61.5 230.5t171.5 185.5l131 -107q-51 -26 -103 -83.5t-69 -111.5q28 7 47 7q67 0 112.5 -47t45.5 -121q0 -78 -55.5 -134.5t-130.5 -56.5q-87 0 -149 65t-62 173z" />
<glyph unicode="&#x2019;" horiz-adv-x="548" d="M82 1198q0 78 55.5 133t132.5 55q87 0 148 -63.5t61 -173.5q0 -122 -62 -230t-171 -186l-131 107q52 26 104.5 83.5t69.5 112.5q-20 -8 -47 -8q-67 0 -113.5 47.5t-46.5 122.5z" />
<glyph unicode="&#x201a;" horiz-adv-x="548" d="M82 172q0 78 55.5 133t132.5 55q87 0 148 -63.5t61 -171.5q0 -124 -62 -231.5t-171 -184.5l-131 107q52 26 104.5 83t69.5 111q-30 -6 -47 -6q-67 0 -113.5 47t-46.5 121z" />
<glyph unicode="&#x201c;" horiz-adv-x="1009" d="M68 973q0 123 61.5 230.5t171.5 185.5l131 -107q-52 -26 -105 -84t-67 -111q28 7 47 7q66 0 112 -47t46 -121q0 -78 -56 -134.5t-133 -56.5q-87 0 -147.5 64.5t-60.5 173.5zM528 973q0 123 62 230.5t172 185.5l131 -107q-51 -26 -103 -83.5t-69 -111.5q28 7 47 7 q67 0 112.5 -47t45.5 -121q0 -78 -56 -134.5t-131 -56.5q-87 0 -149 65t-62 173z" />
<glyph unicode="&#x201d;" horiz-adv-x="1009" d="M82 1198q0 78 55.5 133t132.5 55q87 0 148 -63.5t61 -173.5q0 -122 -62 -230t-171 -186l-131 107q52 26 104.5 83.5t69.5 112.5q-20 -8 -47 -8q-67 0 -113.5 47.5t-46.5 122.5zM545 1198q0 78 55.5 133t130.5 55q88 0 149.5 -64t61.5 -173q0 -122 -62 -230t-171 -186 l-131 107q52 26 103.5 83.5t68.5 112.5q-16 -8 -48 -8q-67 0 -112 47.5t-45 122.5z" />
<glyph unicode="&#x201e;" horiz-adv-x="1011" d="M82 172q0 78 55.5 133t132.5 55q87 0 148 -63.5t61 -171.5q0 -124 -62 -231.5t-171 -184.5l-131 107q52 26 104.5 83t69.5 111q-30 -6 -47 -6q-67 0 -113.5 47t-46.5 121zM545 172q0 78 55.5 133t130.5 55q88 0 149.5 -63.5t61.5 -171.5q0 -124 -62 -231.5t-171 -184.5 l-131 107q51 26 103 83t69 111q-24 -6 -48 -6q-67 0 -112 47t-45 121z" />
<glyph unicode="&#x2026;" horiz-adv-x="1652" d="M84 168q0 78 56 135t134 57t134.5 -57t56.5 -135q0 -77 -56.5 -134t-134.5 -57t-134 57t-56 134zM635 168q0 78 56 135t134 57t134.5 -57t56.5 -135q0 -77 -56.5 -134t-134.5 -57t-134 57t-56 134zM1186 168q0 78 56 135t134 57t135.5 -57t57.5 -135q0 -77 -57.5 -134 t-135.5 -57t-134 57t-56 134z" />
<glyph unicode="&#x202f;" horiz-adv-x="355" />
<glyph unicode="&#x2039;" horiz-adv-x="735" d="M61 498l328 362h285l-328 -362l328 -369h-285z" />
<glyph unicode="&#x203a;" horiz-adv-x="735" d="M61 129l328 369l-328 362h285l328 -362l-328 -369h-285z" />
<glyph unicode="&#x205f;" horiz-adv-x="444" />
<glyph unicode="&#x20ac;" horiz-adv-x="1464" d="M35 455v174h69q-2 27 -2 53q0 28 2 57h-69v174h102q71 218 261.5 347t443.5 129q118 0 218 -31t171.5 -86t120.5 -116t86 -134l-303 -143q-35 84 -116 141t-177 57q-101 0 -182.5 -43.5t-133.5 -120.5h439v-174h-500q-4 -36 -4 -57q0 -37 2 -53h502v-174h-441 q52 -78 134.5 -123t183.5 -45q96 0 177 57t116 141l303 -143q-28 -57 -64 -106.5t-89 -98.5t-115.5 -84t-147.5 -56.5t-180 -21.5q-255 0 -445.5 130t-259.5 350h-102z" />
<glyph unicode="&#x2122;" horiz-adv-x="929" d="M35 1313v53h311v-53h-127v-398h-57v398h-127zM420 915v451h88l131 -328l131 328h88v-451h-57v373l-154 -373h-16l-154 373v-373h-57z" />
<glyph unicode="&#x25fc;" horiz-adv-x="993" d="M0 0v993h993v-993h-993z" />
</font>
</defs>
</svg>
